<?xml version="1.0" encoding="utf-8"?>
<!-- Generator: Adobe Illustrator 16.2.1, SVG Export Plug-In . SVG Version: 6.00 Build 0)  -->
<!DOCTYPE svg PUBLIC "-//W3C//DTD SVG 1.1//EN" "http://www.w3.org/Graphics/SVG/1.1/DTD/svg11.dtd">
<svg version="1.1" id="圖層_1" xmlns="http://www.w3.org/2000/svg" xmlns:xlink="http://www.w3.org/1999/xlink" x="0px" y="0px"
	 width="50px" height="50px" viewBox="0 0 50 50" enable-background="new 0 0 50 50" xml:space="preserve">
<circle fill="#8B6FF9" cx="25" cy="25" r="25"/>
<g display="none">
	<path display="inline" fill="#FFFFFF" d="M31.785,37.381h-4.532l-6.388-15.888l-3.323,15.888H13.01l4.936-23.646h4.549
		l6.403,15.823l3.307-15.823h4.517L31.785,37.381z"/>
</g>
<g display="none">
	<polygon display="inline" fill="#FFFFFF" points="34.723,20.562 38.11,17.133 32.547,11.57 29.134,14.973 	"/>
	<polygon display="inline" fill="#FFFFFF" points="27.009,17.091 12.047,32.008 12.047,37.945 17.922,37.57 32.615,22.696 	"/>
</g>
<g display="none">
	<circle display="inline" fill="#FFFFFF" cx="25" cy="25" r="14.719"/>
	<polygon display="inline" fill="#9E46DE" points="22.056,18.654 30.338,25 22.056,31.347 	"/>
</g>
<path display="none" fill="#FFFFFF" d="M25,14.659c-6.894,0-12.782,4.288-15.167,10.341C12.219,31.053,18.106,35.341,25,35.341
	c6.9,0,12.781-4.288,15.167-10.341C37.782,18.947,31.901,14.659,25,14.659z M25,31.895c-3.806,0-6.894-3.089-6.894-6.895
	s3.088-6.894,6.894-6.894s6.895,3.088,6.895,6.894S28.806,31.895,25,31.895z M25,20.864c-2.282,0-4.137,1.854-4.137,4.136
	s1.854,4.137,4.137,4.137s4.137-1.854,4.137-4.137S27.283,20.864,25,20.864z"/>
<g>
	<path fill="#FFFFFF" d="M15.309,37.729c0.097,0.018,0.194,0.036,0.292,0.058c-0.314,0.832-0.521,1.487-0.935,2.159
		c-3.307,0.027-4.285-3.611-4.264-6.833c-1.48,0.544-2.96,1.091-4.44,1.636c-0.019-0.038-0.04-0.077-0.059-0.117
		c0.236-0.465,0.773-0.736,1.168-1.05c1.023-0.819,1.917-1.966,2.688-3.04c-0.234-0.311-0.468-0.623-0.701-0.935
		c0.604-0.116,1.208-0.233,1.811-0.351c2.2-2.784,4.401-5.568,6.602-8.353c-1.417-0.414-3.154-1.835-2.922-3.563
		c0.644-0.896,1.286-1.792,1.929-2.688c0.272,0,0.545,0,0.818,0c0.39-0.409,0.779-0.817,1.168-1.226
		c-1.991-0.811-6.292-3.271-6.016-5.9c0.4,0.298,1.479,0.795,2.336,0.409c0.213-0.096,0.244-0.552,0.701-0.409
		c0.511,0.161,0.933,0.841,1.578,0.993c2.08,0.491,5.523-2.848,6.893-3.622c-0.79,1.605-4.554,3.577-3.155,6.192
		c0.759-0.74,1.519-1.479,2.278-2.219c0.568-1.254,2.447-2.285,2.104-4.148c-0.254,0.078-0.506,0.156-0.76,0.233
		c-0.02-0.019-0.039-0.039-0.058-0.058c0.025-0.632-0.063-2.201,0.292-2.453c0.895-0.409,1.672-0.521,2.336-1.11
		c1.535,0.538,5.065,4.031,3.389,6.25c-0.701,0.927-2.388,1.477-3.389,2.103c-2.616,1.633-5.109,3.492-7.536,5.316
		c-0.545,0.371-1.09,0.741-1.635,1.11c2.044,0.375,1.534-0.457,2.745-0.643c0.574,0.342,2.039,0.912,2.337,1.519
		c-1.622,6.243-6.095,9.35-9.405,13.844c0.862,1.624,2.131,3.17,2.278,5.491C15.813,36.887,15.335,37.031,15.309,37.729z"/>
	<path fill="#FFFFFF" d="M31.608,9.804c0.812,0.07,1.121,0.349,1.52,0.818c-0.118,0.604-0.234,1.208-0.352,1.811
		c-0.039,0.019-0.077,0.04-0.116,0.058c-0.079-0.019-0.156-0.039-0.234-0.058c-0.358-0.62-1.497-1.902-1.168-2.57
		C31.374,9.843,31.492,9.823,31.608,9.804z"/>
	<path fill="#FFFFFF" d="M36.574,10.329c0.223,0.074,0.294,0.114,0.408,0.292c0.04,0.136,0.078,0.272,0.118,0.408
		c-0.465,0.747-0.75,0.849-1.577,0.351c-0.021-0.117-0.041-0.234-0.059-0.351c0.096-0.097,0.193-0.194,0.292-0.292
		C36.119,10.583,36.304,10.54,36.574,10.329z"/>
	<path fill="#FFFFFF" d="M37.159,12.023c0.154,0.059,0.31,0.118,0.466,0.175c0.07,0.397,0.146,0.847,0.058,1.286
		c-0.115,0.097-0.232,0.195-0.35,0.292c-0.188,0.102-0.54,0.158-0.759,0.059c-0.234-0.194-0.467-0.39-0.701-0.584
		c0.02-0.039,0.038-0.078,0.058-0.117C36.189,12.663,36.833,12.478,37.159,12.023z"/>
	<path fill="#FFFFFF" d="M42.533,14.36c0.255,0.131,0.86,0.541,1.11,0.76c-0.221,0.459-0.708,0.569-0.993,0.935
		c-0.735,0.94-0.393,1.117-1.636,1.694c-0.511-0.31-0.868-1.557-0.526-2.219C41.168,15.14,41.85,14.749,42.533,14.36z"/>
	<path fill="#FFFFFF" d="M37.8,15.12c0.285,0.135,0.44,0.261,0.643,0.467c0.011,0.451-0.151,0.749-0.468,0.701
		c-0.189-0.371-0.504-0.557-0.293-0.876C37.723,15.314,37.761,15.217,37.8,15.12z"/>
	<path fill="#FFFFFF" d="M32.66,15.996c0.233,0.02,0.468,0.039,0.699,0.059c0.157,0.175,0.313,0.351,0.47,0.526
		c0.178,0.593-0.32,0.733-0.643,0.993c-0.236-0.023-0.23-0.019-0.351-0.117c0.127-0.531-0.197-0.807-0.293-1.286
		C32.581,16.113,32.622,16.054,32.66,15.996z"/>
	<path fill="#FFFFFF" d="M35.289,16.813c0.946,0.261,0.98,0.742,1.285,1.578c-0.039,0-0.078,0-0.116,0
		c-0.408,0.177-0.773,0.32-1.228,0.351c-0.37-0.293-0.741-0.584-1.109-0.876c-0.02-0.078-0.041-0.157-0.061-0.234
		C34.583,17.402,34.882,17.137,35.289,16.813z"/>
	<path fill="#FFFFFF" d="M25.881,34.223c-0.13,4.756,0.339,8.441,4.441,9.345c3.917,0.865,6.611-0.965,7.419-3.971
		c0.378-1.412,0.502-3.352-0.233-4.44c0.059-0.019,0.116-0.038,0.174-0.058c6.61,1.927,4.349,9.035-1.051,10.515
		c-6.473,1.774-11.059-1.939-12.501-6.484c-0.496-1.564-0.286-3.523-0.584-5.258c-1.118-0.143-4.276-1.98-3.621-2.805
		c0.039-0.058,0.077-0.115,0.116-0.175c1.035-0.049,3.747-0.112,4.498-0.526c0.704-2.294,3.831-6.425,2.746-9.345
		c-0.461-1.237-1.909-1.46-2.512-2.454c1.294-0.249,3.188-0.702,4.499-0.058c0.35,0.759,0.699,1.519,1.051,2.278
		c0.059,0.604,0.116,1.208,0.174,1.811c0.04,0.039,0.079,0.077,0.118,0.117c0.097,0.02,0.194,0.039,0.292,0.059
		c0.01-0.25,0.041-0.512,0.176-0.643c0.077-0.02,0.155-0.039,0.232-0.059c1.352,1.094,3.376,1.149,2.806,4.031
		c-0.099-0.02-0.196-0.038-0.292-0.058c-0.187-1.167-2.153-1.337-3.098-0.761c-1.563,0.955-2.614,3.516-3.388,5.258
		c1.372,0.08,3.868,0.06,3.506,1.812C30.431,34.366,28.266,34.291,25.881,34.223z"/>
	<path fill="#FFFFFF" d="M36.631,18.449c0.234,0.098,0.469,0.195,0.701,0.293c-0.094,0.326-0.274,0.428-0.524,0.584
		c-0.06-0.021-0.119-0.039-0.177-0.059C36.522,18.965,36.525,18.752,36.631,18.449z"/>
	<path fill="#FFFFFF" d="M31.958,18.8c0.116,0.02,0.234,0.039,0.35,0.059c0.137,0.098,0.272,0.194,0.409,0.293
		c-0.019,0.35-0.038,0.7-0.058,1.051c-0.098,0.02-0.194,0.039-0.293,0.058c-0.214-0.175-0.428-0.35-0.642-0.525
		c0.047,0.263,0.021,0.278-0.117,0.468c-0.176-0.02-0.351-0.039-0.525-0.059c-0.097-0.078-0.195-0.156-0.293-0.234
		c0.09-0.296,0.23-0.545,0.468-0.701c0.275,0.151,0.294,0.271,0.468,0.233c-0.06-0.155-0.117-0.311-0.176-0.466
		c0.038-0.039,0.079-0.078,0.116-0.117C31.764,18.838,31.861,18.82,31.958,18.8z"/>
	<path fill="#FFFFFF" d="M33.829,19.092c0.174,0.039,0.35,0.078,0.524,0.117c0.076,0.359,0.003,0.305-0.059,0.701
		c0.231,0.127,0.544,0.191,0.701,0.41c-0.146,0.271-0.582,0.548-0.936,0.408c-0.231-0.253-0.466-0.506-0.701-0.759
		C33.516,19.677,33.672,19.384,33.829,19.092z"/>
	<path fill="#FFFFFF" d="M39.26,19.267c0.594,0.081,1.168,0.649,1.462,1.052c-0.021,0.116-0.04,0.233-0.061,0.35
		c-0.368,0.058-0.739,0.117-1.109,0.176c-0.43-0.085-0.605-0.454-1.343-0.468c0-0.058,0-0.117,0-0.175
		C38.48,19.696,38.799,19.576,39.26,19.267z"/>
	<path fill="#FFFFFF" d="M36.515,20.436c0.293,0.159,0.886,0.688,1.052,0.994c-0.078,0.156-0.157,0.311-0.234,0.467
		c-0.116,0-0.232,0-0.351,0C36.4,21.627,36.342,21.052,36.515,20.436z"/>
	<path fill="#FFFFFF" d="M31.432,20.786c0.137,0.02,0.272,0.039,0.409,0.059c0.077,0.136,0.156,0.272,0.233,0.408
		c-0.019,0.098-0.038,0.195-0.059,0.292c-0.278,0.123-0.488,0.154-0.816,0.117c-0.021-0.058-0.04-0.117-0.06-0.175
		C31.238,21.253,31.335,21.02,31.432,20.786z"/>
	<path fill="#FFFFFF" d="M35.053,21.195c0.137,0.04,0.275,0.079,0.411,0.117c0.037,0.078,0.077,0.155,0.116,0.233
		c-0.131,0.202-0.184,0.246-0.116,0.525c0.508,0.056,0.534,0.129,0.875,0.409c-0.038,0.059-0.079,0.117-0.116,0.176
		c-0.271,0.081-0.499,0.122-0.819,0.058C35.144,22.226,34.941,21.749,35.053,21.195z"/>
	<path fill="#FFFFFF" d="M32.893,21.662c0.234,0.034,0.175-0.003,0.293,0.118c0.133,0.301,0.014,0.723-0.059,0.993
		c-0.077,0.039-0.156,0.079-0.234,0.117c-0.342-0.101-0.612-0.176-0.818-0.409C32.288,22.106,32.637,21.983,32.893,21.662z"/>
	<path fill="#FFFFFF" d="M43.701,21.838c0.272,0.039,0.544,0.078,0.816,0.117c0.059,0.156,0.119,0.311,0.177,0.468
		c-0.058,0.233-0.118,0.467-0.177,0.701c-0.432,0.075-0.489-0.028-0.759-0.234C43.739,22.539,43.719,22.188,43.701,21.838z"/>
</g>
</svg>
