<?xml version="1.0" encoding="utf-8"?>
<!-- Generator: Adobe Illustrator 16.2.1, SVG Export Plug-In . SVG Version: 6.00 Build 0)  -->
<!DOCTYPE svg PUBLIC "-//W3C//DTD SVG 1.1//EN" "http://www.w3.org/Graphics/SVG/1.1/DTD/svg11.dtd">
<svg version="1.1" id="圖層_1" xmlns="http://www.w3.org/2000/svg" xmlns:xlink="http://www.w3.org/1999/xlink" x="0px" y="0px"
	 width="50px" height="50px" viewBox="0 0 50 50" enable-background="new 0 0 50 50" xml:space="preserve">
<circle fill="#FF2DA9" cx="25" cy="25" r="25"/>
<g display="none">
	<path display="inline" fill="#FFFFFF" d="M31.785,37.381h-4.532l-6.388-15.888l-3.323,15.888H13.01l4.936-23.646h4.549
		l6.403,15.823l3.307-15.823h4.517L31.785,37.381z"/>
</g>
<g display="none">
	<polygon display="inline" fill="#FFFFFF" points="34.723,20.562 38.11,17.133 32.547,11.57 29.134,14.973 	"/>
	<polygon display="inline" fill="#FFFFFF" points="27.009,17.091 12.047,32.008 12.047,37.945 17.922,37.57 32.615,22.696 	"/>
</g>
<g display="none">
	<circle display="inline" fill="#FFFFFF" cx="25" cy="25" r="14.719"/>
	<polygon display="inline" fill="#9E46DE" points="22.056,18.654 30.338,25 22.056,31.347 	"/>
</g>
<path fill="#FFFFFF" d="M25,14.659c-6.894,0-12.782,4.288-15.167,10.341C12.219,31.053,18.106,35.341,25,35.341
	c6.9,0,12.781-4.288,15.167-10.341C37.782,18.947,31.901,14.659,25,14.659z M25,31.895c-3.806,0-6.894-3.089-6.894-6.895
	s3.088-6.894,6.894-6.894s6.895,3.088,6.895,6.894S28.806,31.895,25,31.895z M25,20.864c-2.282,0-4.137,1.854-4.137,4.136
	s1.854,4.137,4.137,4.137s4.137-1.854,4.137-4.137S27.283,20.864,25,20.864z"/>
</svg>
