<?xml version="1.0" encoding="utf-8"?>
<!-- Generator: Adobe Illustrator 16.2.1, SVG Export Plug-In . SVG Version: 6.00 Build 0)  -->
<!DOCTYPE svg PUBLIC "-//W3C//DTD SVG 1.1//EN" "http://www.w3.org/Graphics/SVG/1.1/DTD/svg11.dtd">
<svg version="1.1" id="圖層_1" xmlns="http://www.w3.org/2000/svg" xmlns:xlink="http://www.w3.org/1999/xlink" x="0px" y="0px"
	 width="18px" height="17px" viewBox="0 0 18 17" enable-background="new 0 0 18 17" xml:space="preserve">
<path fill="#9A99A1" d="M9,2.364c-4.091,0-7.584,2.544-9,6.136c1.416,3.592,4.909,6.137,9,6.137c4.095,0,7.584-2.545,9-6.137
	C16.584,4.908,13.095,2.364,9,2.364z M9,12.59c-2.258,0-4.091-1.832-4.091-4.09c0-2.258,1.833-4.091,4.091-4.091
	c2.258,0,4.091,1.833,4.091,4.091C13.091,10.758,11.258,12.59,9,12.59z M9,6.045c-1.354,0-2.455,1.101-2.455,2.454
	c0,1.354,1.101,2.456,2.455,2.456c1.354,0,2.455-1.102,2.455-2.456C11.455,7.146,10.354,6.045,9,6.045z"/>
</svg>
