<?xml version="1.0" encoding="utf-8"?>
<!-- Generator: Adobe Illustrator 16.0.0, SVG Export Plug-In . SVG Version: 6.00 Build 0)  -->
<!DOCTYPE svg PUBLIC "-//W3C//DTD SVG 1.1//EN" "http://www.w3.org/Graphics/SVG/1.1/DTD/svg11.dtd">
<svg version="1.1" id="圖層_1" xmlns="http://www.w3.org/2000/svg" xmlns:xlink="http://www.w3.org/1999/xlink" x="0px" y="0px"
	 width="18px" height="18px" viewBox="0 0 18 18" enable-background="new 0 0 18 18" xml:space="preserve">
<rect x="0.948" y="0.947" opacity="0.7" width="16.105" height="16.105"/>
<path opacity="0.7" fill="#FFFFFF" d="M0,0v18h18V0H0z M17.053,17.053h-4.752v-5.398h2.125c0.156,0,0.283-0.127,0.283-0.283
	L14.71,9.08c0-0.075-0.03-0.147-0.083-0.201c-0.054-0.053-0.125-0.083-0.201-0.083h-2.125V7.457c0-0.645,0.154-0.972,0.992-0.972
	h1.217c0.157,0,0.285-0.128,0.285-0.284V4.075c0-0.157-0.128-0.284-0.283-0.284l-1.807-0.003c-2.029,0-3.341,1.345-3.341,3.428v1.58
	H7.549c-0.157,0-0.284,0.127-0.284,0.284v2.291c0,0.156,0.127,0.283,0.284,0.283h1.816v5.398H0.948V0.947h16.105V17.053z"/>
</svg>
