<?xml version="1.0" encoding="utf-8"?>
<!-- Generator: Adobe Illustrator 16.2.1, SVG Export Plug-In . SVG Version: 6.00 Build 0)  -->
<!DOCTYPE svg PUBLIC "-//W3C//DTD SVG 1.1//EN" "http://www.w3.org/Graphics/SVG/1.1/DTD/svg11.dtd">
<svg version="1.1" id="圖層_1" xmlns="http://www.w3.org/2000/svg" xmlns:xlink="http://www.w3.org/1999/xlink" x="0px" y="0px"
	 width="32px" height="31px" viewBox="0 0 32 31" enable-background="new 0 0 32 31" xml:space="preserve">
<g>
	<path fill="#7D7B87" d="M21.425,13.95c1.241,0,2.325-1.085,2.325-2.325S22.666,9.3,21.425,9.3c-1.239,0-2.325,1.085-2.325,2.325
		S20.186,13.95,21.425,13.95z"/>
	<path fill="#7D7B87" d="M10.575,13.95c1.24,0,2.325-1.085,2.325-2.325S11.815,9.3,10.575,9.3S8.25,10.385,8.25,11.625
		S9.335,13.95,10.575,13.95z"/>
	<path fill="#7D7B87" d="M16,24.8c4.03,0,7.44-2.635,8.68-6.2H7.32C8.56,22.165,11.97,24.8,16,24.8z"/>
	<path fill="#7D7B87" d="M16,0C7.475,0,0.5,6.975,0.5,15.5S7.475,31,16,31c8.525,0,15.5-6.975,15.5-15.5S24.525,0,16,0z M16,27.791
		c-7.009,0-12.743-5.531-12.743-12.291C3.257,8.74,8.991,3.209,16,3.209c7.01,0,12.743,5.531,12.743,12.291
		C28.743,22.26,23.01,27.791,16,27.791z"/>
</g>
</svg>
