<?xml version="1.0" encoding="utf-8"?>
<!-- Generator: Adobe Illustrator 16.2.1, SVG Export Plug-In . SVG Version: 6.00 Build 0)  -->
<!DOCTYPE svg PUBLIC "-//W3C//DTD SVG 1.1//EN" "http://www.w3.org/Graphics/SVG/1.1/DTD/svg11.dtd">
<svg version="1.1" id="圖層_2" xmlns="http://www.w3.org/2000/svg" xmlns:xlink="http://www.w3.org/1999/xlink" x="0px" y="0px"
	 width="22px" height="22px" viewBox="0 0 22 22" enable-background="new 0 0 22 22" xml:space="preserve">
<g>
	<path fill="#7C7C7C" d="M18.701,2.2h-4.604C13.646,0.924,12.435,0,11,0C9.565,0,8.355,0.924,7.904,2.2H3.3
		c-1.216,0-2.2,0.984-2.2,2.2v15.4c0,1.215,0.984,2.2,2.2,2.2h15.4c1.215,0,2.199-0.985,2.199-2.2V4.4
		C20.9,3.185,19.916,2.2,18.701,2.2z M11,2.2c0.604,0,1.1,0.489,1.1,1.1c0,0.611-0.495,1.1-1.1,1.1C10.395,4.4,9.9,3.911,9.9,3.3
		C9.9,2.689,10.395,2.2,11,2.2z M13.201,17.6H5.5v-2.199h7.7V17.6z M16.5,13.2h-11V11h11V13.2z M16.5,8.8h-11V6.6h11V8.8z"/>
</g>
</svg>
