<?xml version="1.0" encoding="utf-8"?>
<!-- Generator: Adobe Illustrator 16.0.0, SVG Export Plug-In . SVG Version: 6.00 Build 0)  -->
<!DOCTYPE svg PUBLIC "-//W3C//DTD SVG 1.1//EN" "http://www.w3.org/Graphics/SVG/1.1/DTD/svg11.dtd">
<svg version="1.1" id="圖層_1" xmlns="http://www.w3.org/2000/svg" xmlns:xlink="http://www.w3.org/1999/xlink" x="0px" y="0px"
	 width="112px" height="112px" viewBox="0 0 112 112" enable-background="new 0 0 112 112" xml:space="preserve">
<circle fill="#1CCCB8" cx="56" cy="56" r="56"/>
<g>
	<g>
		<path fill="#FFFFFF" d="M88.752,34.625c-1.851-1.851-4.082-2.776-6.697-2.776h-8.29l-1.888-5.031
			c-0.468-1.21-1.325-2.252-2.572-3.129c-1.246-0.876-2.522-1.313-3.83-1.313H46.527c-1.308,0-2.585,0.438-3.831,1.313
			c-1.245,0.877-2.103,1.919-2.572,3.129l-1.888,5.031h-8.289c-2.616,0-4.849,0.926-6.699,2.776
			c-1.85,1.851-2.775,4.083-2.775,6.698v33.16c0,2.615,0.926,4.849,2.775,6.697c1.851,1.852,4.083,2.776,6.699,2.776h52.107
			c2.615,0,4.848-0.925,6.698-2.776c1.851-1.849,2.775-4.082,2.775-6.697v-33.16C91.529,38.708,90.604,36.475,88.752,34.625z
			 M67.712,69.615c-3.244,3.246-7.147,4.867-11.712,4.867s-8.469-1.621-11.713-4.867c-3.245-3.243-4.866-7.148-4.866-11.712
			c0-4.565,1.621-8.468,4.866-11.713c3.244-3.244,7.148-4.866,11.713-4.866s8.468,1.622,11.712,4.866
			c3.245,3.244,4.868,7.148,4.868,11.713C72.581,62.467,70.958,66.37,67.712,69.615z"/>
		<path fill="#FFFFFF" d="M56,47.244c-2.936,0-5.446,1.044-7.531,3.128c-2.084,2.086-3.128,4.596-3.128,7.532
			c0,2.936,1.044,5.445,3.128,7.53c2.085,2.086,4.596,3.128,7.531,3.128c2.935,0,5.446-1.042,7.531-3.128
			c2.085-2.085,3.126-4.595,3.126-7.53c0-2.936-1.041-5.446-3.126-7.532C61.447,48.288,58.935,47.244,56,47.244z"/>
	</g>
</g>
</svg>
