<?xml version="1.0" encoding="utf-8"?>
<!-- Generator: Adobe Illustrator 16.2.1, SVG Export Plug-In . SVG Version: 6.00 Build 0)  -->
<!DOCTYPE svg PUBLIC "-//W3C//DTD SVG 1.1//EN" "http://www.w3.org/Graphics/SVG/1.1/DTD/svg11.dtd">
<svg version="1.1" id="圖層_2" xmlns="http://www.w3.org/2000/svg" xmlns:xlink="http://www.w3.org/1999/xlink" x="0px" y="0px"
	 width="22px" height="22px" viewBox="0 0 22 22" enable-background="new 0 0 22 22" xml:space="preserve">
<path fill="#7C7C7C" d="M18.874,4.631h-2.149c0.107-0.364,0.181-0.752,0.181-1.158C16.905,1.557,15.583,0,13.953,0
	c-1.027,0-1.935,0.619-2.461,1.557L11,2.345l-0.492-0.788C9.982,0.619,9.076,0,8.047,0C6.419,0,5.095,1.557,5.095,3.474
	c0,0.405,0.068,0.793,0.183,1.158H3.126c-1.087,0-1.958,1.037-1.958,2.316L1.158,19.684C1.158,20.963,2.039,22,3.126,22h15.747
	c1.088,0,1.969-1.037,1.969-2.316V6.947C20.842,5.668,19.961,4.631,18.874,4.631z M13.953,2.316c0.542,0,0.983,0.521,0.983,1.158
	s-0.441,1.158-0.983,1.158s-0.983-0.521-0.983-1.158S13.411,2.316,13.953,2.316z M8.047,2.316c0.541,0,0.984,0.521,0.984,1.158
	S8.588,4.631,8.047,4.631S7.064,4.11,7.064,3.474S7.506,2.316,8.047,2.316z M18.874,19.684H3.126v-2.315h15.747V19.684z
	 M18.874,13.895H3.126V6.947h5L6.08,10.23l1.6,1.349l2.336-3.746L11,6.258l0.983,1.575l2.338,3.746l1.6-1.349l-2.048-3.283h5V13.895
	z"/>
</svg>
