<?xml version="1.0" encoding="utf-8"?>
<!-- Generator: Adobe Illustrator 16.0.0, SVG Export Plug-In . SVG Version: 6.00 Build 0)  -->
<!DOCTYPE svg PUBLIC "-//W3C//DTD SVG 1.1//EN" "http://www.w3.org/Graphics/SVG/1.1/DTD/svg11.dtd">
<svg version="1.1" id="圖層_1" xmlns="http://www.w3.org/2000/svg" xmlns:xlink="http://www.w3.org/1999/xlink" x="0px" y="0px"
	 width="121px" height="120px" viewBox="0 0 121 120" enable-background="new 0 0 121 120" xml:space="preserve">
<g>
	<path fill="#B771FF" d="M113.91,31.813L59.93,85.794L30.47,56.334l7.778-7.778L59.93,70.237l47.763-47.762
		C96.604,8.778,79.59,0,60.5,0C27.087,0,0,26.863,0,60s27.087,60,60.5,60S121,93.137,121,60C121,49.81,118.43,40.217,113.91,31.813z
		"/>
	<path fill="#FFFFFF" d="M38.249,48.556l-7.778,7.778L59.93,85.794l53.98-53.981c-1.78-3.311-3.867-6.433-6.218-9.337L59.93,70.237
		L38.249,48.556z"/>
</g>
</svg>
