<?xml version="1.0" encoding="utf-8"?>
<!-- Generator: Adobe Illustrator 16.2.1, SVG Export Plug-In . SVG Version: 6.00 Build 0)  -->
<!DOCTYPE svg PUBLIC "-//W3C//DTD SVG 1.1//EN" "http://www.w3.org/Graphics/SVG/1.1/DTD/svg11.dtd">
<svg version="1.1" id="圖層_2" xmlns="http://www.w3.org/2000/svg" xmlns:xlink="http://www.w3.org/1999/xlink" x="0px" y="0px"
	 width="22px" height="22px" viewBox="0 0 22 22" enable-background="new 0 0 22 22" xml:space="preserve">
<g>
	<path fill="#E60012" d="M8.403,16.882C3.77,16.882,0,13.112,0,8.479c0-4.633,3.77-8.403,8.403-8.403
		c4.634,0,8.403,3.77,8.403,8.403C16.806,13.112,13.037,16.882,8.403,16.882z M8.403,3.132c-2.948,0-5.347,2.398-5.347,5.347
		c0,2.948,2.399,5.347,5.347,5.347c2.949,0,5.348-2.399,5.348-5.347C13.75,5.531,11.352,3.132,8.403,3.132z"/>
	<path fill="#E60012" d="M20.472,21.924c-0.391,0-0.782-0.15-1.08-0.448l-6.875-6.875c-0.597-0.597-0.597-1.563,0-2.161
		c0.597-0.596,1.563-0.596,2.16,0l6.875,6.875c0.598,0.598,0.598,1.564,0,2.161C21.254,21.774,20.864,21.924,20.472,21.924z"/>
</g>
</svg>
