<?xml version="1.0" encoding="utf-8"?>
<!-- Generator: Adobe Illustrator 16.2.1, SVG Export Plug-In . SVG Version: 6.00 Build 0)  -->
<!DOCTYPE svg PUBLIC "-//W3C//DTD SVG 1.1//EN" "http://www.w3.org/Graphics/SVG/1.1/DTD/svg11.dtd">
<svg version="1.1" id="圖層_1" xmlns="http://www.w3.org/2000/svg" xmlns:xlink="http://www.w3.org/1999/xlink" x="0px" y="0px"
	 width="17px" height="17px" viewBox="15.5 15.5 17 17" enable-background="new 15.5 15.5 17 17" xml:space="preserve">
<path fill="#FFFFFF" d="M23,17.5c-4.144,0-7.5,3.356-7.5,7.5c0,4.14,3.356,7.5,7.5,7.5s7.5-3.36,7.5-7.5
	C30.5,20.856,27.144,17.5,23,17.5z M20,29.125c-1.035,0-1.875-0.84-1.875-1.875s0.84-1.875,1.875-1.875
	c1.035,0,1.875,0.84,1.875,1.875S21.035,29.125,20,29.125z M21.125,22c0-1.035,0.84-1.875,1.875-1.875s1.875,0.84,1.875,1.875
	c0,1.035-0.84,1.875-1.875,1.875S21.125,23.035,21.125,22z M26,29.125c-1.034,0-1.875-0.84-1.875-1.875s0.84-1.875,1.875-1.875
	c1.035,0,1.875,0.84,1.875,1.875S27.035,29.125,26,29.125z"/>
</svg>
