<?xml version="1.0" encoding="utf-8"?>
<!-- Generator: Adobe Illustrator 16.2.1, SVG Export Plug-In . SVG Version: 6.00 Build 0)  -->
<!DOCTYPE svg PUBLIC "-//W3C//DTD SVG 1.1//EN" "http://www.w3.org/Graphics/SVG/1.1/DTD/svg11.dtd">
<svg version="1.1" id="圖層_1" xmlns="http://www.w3.org/2000/svg" xmlns:xlink="http://www.w3.org/1999/xlink" x="0px" y="0px"
	 width="31.25px" height="25px" viewBox="0 0 31.25 25" enable-background="new 0 0 31.25 25" xml:space="preserve">
<path fill="#A24BE1" d="M15.625,2.969c1.812,0,3.281,1.469,3.281,3.281s-1.469,3.281-3.281,3.281s-3.281-1.469-3.281-3.281
	S13.812,2.969,15.625,2.969 M15.625,17.031c4.648,0,9.531,2.273,9.531,3.281v1.719H6.094v-1.719
	C6.094,19.305,10.977,17.031,15.625,17.031 M15.625,0c-3.453,0-6.25,2.797-6.25,6.25c0,3.445,2.797,6.25,6.25,6.25
	s6.25-2.805,6.25-6.25C21.875,2.797,19.078,0,15.625,0z M15.625,14.062c-4.164,0-12.5,2.086-12.5,6.25V25h25v-4.688
	C28.125,16.148,19.789,14.062,15.625,14.062z"/>
</svg>
