<?xml version="1.0" encoding="utf-8"?>
<!-- Generator: Adobe Illustrator 16.2.1, SVG Export Plug-In . SVG Version: 6.00 Build 0)  -->
<!DOCTYPE svg PUBLIC "-//W3C//DTD SVG 1.1//EN" "http://www.w3.org/Graphics/SVG/1.1/DTD/svg11.dtd">
<svg version="1.1" id="圖層_1" xmlns="http://www.w3.org/2000/svg" xmlns:xlink="http://www.w3.org/1999/xlink" x="0px" y="0px"
	 width="31.25px" height="25px" viewBox="0 0 31.25 25" enable-background="new 0 0 31.25 25" xml:space="preserve">
<g>
	<path fill="#A24BE1" d="M8.202,11.589c-3.195,0-5.794-2.599-5.794-5.794S5.007,0,8.202,0c3.196,0,5.795,2.6,5.795,5.795
		S11.396,11.589,8.202,11.589z M8.202,1.766c-2.221,0-4.029,1.808-4.029,4.029c0,2.221,1.808,4.028,4.029,4.028
		c2.222,0,4.028-1.808,4.028-4.028C12.23,3.573,10.422,1.766,8.202,1.766z"/>
	<path fill="#A24BE1" d="M23.047,11.589c-3.193,0-5.793-2.599-5.793-5.794S19.854,0,23.047,0c3.195,0,5.795,2.6,5.795,5.795
		S26.242,11.589,23.047,11.589z M23.047,1.766c-2.221,0-4.027,1.808-4.027,4.029c0,2.221,1.807,4.028,4.027,4.028
		c2.223,0,4.029-1.808,4.029-4.028C27.076,3.573,25.27,1.766,23.047,1.766z"/>
	<path fill="#A24BE1" d="M8.202,25c-3.195,0-5.794-2.6-5.794-5.794c0-3.196,2.6-5.795,5.794-5.795c3.196,0,5.795,2.599,5.795,5.795
		C13.997,22.4,11.396,25,8.202,25z M8.202,15.177c-2.221,0-4.029,1.808-4.029,4.029c0,2.221,1.808,4.028,4.029,4.028
		c2.222,0,4.028-1.809,4.028-4.028C12.23,16.982,10.422,15.177,8.202,15.177z"/>
	<path fill="#A24BE1" d="M23.047,25c-3.193,0-5.793-2.6-5.793-5.794c0-3.196,2.6-5.795,5.793-5.795c3.195,0,5.795,2.599,5.795,5.795
		C28.842,22.4,26.242,25,23.047,25z M23.047,15.177c-2.221,0-4.027,1.808-4.027,4.029c0,2.221,1.807,4.028,4.027,4.028
		c2.223,0,4.029-1.809,4.029-4.028C27.076,16.982,25.27,15.177,23.047,15.177z"/>
</g>
</svg>
