<?xml version="1.0" encoding="utf-8"?>
<!-- Generator: Adobe Illustrator 16.2.1, SVG Export Plug-In . SVG Version: 6.00 Build 0)  -->
<!DOCTYPE svg PUBLIC "-//W3C//DTD SVG 1.1//EN" "http://www.w3.org/Graphics/SVG/1.1/DTD/svg11.dtd">
<svg version="1.1" id="圖層_1" xmlns="http://www.w3.org/2000/svg" xmlns:xlink="http://www.w3.org/1999/xlink" x="0px" y="0px"
	 width="31.25px" height="25px" viewBox="4 15 31.25 25" enable-background="new 4 15 31.25 25" xml:space="preserve">
<g>
	<path fill="#7C7C7C" d="M12.202,26.589c-3.195,0-5.794-2.599-5.794-5.794c0-3.196,2.6-5.795,5.794-5.795
		c3.196,0,5.795,2.599,5.795,5.795C17.997,23.99,15.397,26.589,12.202,26.589z M12.202,16.766c-2.221,0-4.029,1.807-4.029,4.029
		c0,2.221,1.808,4.028,4.029,4.028c2.222,0,4.029-1.807,4.029-4.028C16.23,18.573,14.423,16.766,12.202,16.766z"/>
	<path fill="#7C7C7C" d="M27.048,26.589c-3.195,0-5.794-2.599-5.794-5.794c0-3.196,2.599-5.795,5.794-5.795s5.795,2.599,5.795,5.795
		C32.843,23.99,30.243,26.589,27.048,26.589z M27.048,16.766c-2.222,0-4.029,1.807-4.029,4.029c0,2.221,1.807,4.028,4.029,4.028
		c2.221,0,4.029-1.807,4.029-4.028C31.077,18.573,29.269,16.766,27.048,16.766z"/>
	<path fill="#7C7C7C" d="M12.202,40c-3.195,0-5.794-2.6-5.794-5.794c0-3.196,2.6-5.795,5.794-5.795c3.196,0,5.795,2.599,5.795,5.795
		C17.997,37.4,15.397,40,12.202,40z M12.202,30.177c-2.221,0-4.029,1.807-4.029,4.029c0,2.221,1.808,4.028,4.029,4.028
		c2.222,0,4.029-1.808,4.029-4.028C16.23,31.983,14.423,30.177,12.202,30.177z"/>
	<path fill="#7C7C7C" d="M27.048,40c-3.195,0-5.794-2.6-5.794-5.794c0-3.196,2.599-5.795,5.794-5.795s5.795,2.599,5.795,5.795
		C32.843,37.4,30.243,40,27.048,40z M27.048,30.177c-2.222,0-4.029,1.807-4.029,4.029c0,2.221,1.807,4.028,4.029,4.028
		c2.221,0,4.029-1.808,4.029-4.028C31.077,31.983,29.269,30.177,27.048,30.177z"/>
</g>
</svg>
