<?xml version="1.0" encoding="utf-8"?>
<!-- Generator: Adobe Illustrator 16.2.1, SVG Export Plug-In . SVG Version: 6.00 Build 0)  -->
<!DOCTYPE svg PUBLIC "-//W3C//DTD SVG 1.1//EN" "http://www.w3.org/Graphics/SVG/1.1/DTD/svg11.dtd">
<svg version="1.1" id="圖層_1" xmlns="http://www.w3.org/2000/svg" xmlns:xlink="http://www.w3.org/1999/xlink" x="0px" y="0px"
	 width="31.25px" height="25px" viewBox="4 15 31.25 25" enable-background="new 4 15 31.25 25" xml:space="preserve">
<path fill="#7C7C7C" d="M19.625,17.969c1.812,0,3.281,1.469,3.281,3.281s-1.469,3.281-3.281,3.281s-3.281-1.469-3.281-3.281
	S17.812,17.969,19.625,17.969 M19.625,32.031c4.648,0,9.531,2.273,9.531,3.281v1.719H10.094v-1.719
	C10.094,34.305,14.977,32.031,19.625,32.031 M19.625,15c-3.453,0-6.25,2.797-6.25,6.25c0,3.445,2.797,6.25,6.25,6.25
	s6.25-2.805,6.25-6.25C25.875,17.797,23.078,15,19.625,15z M19.625,29.062c-4.164,0-12.5,2.086-12.5,6.25V40h25v-4.688
	C32.125,31.148,23.789,29.062,19.625,29.062z"/>
</svg>
