<?xml version="1.0" encoding="utf-8"?>
<!-- Generator: Adobe Illustrator 16.2.1, SVG Export Plug-In . SVG Version: 6.00 Build 0)  -->
<!DOCTYPE svg PUBLIC "-//W3C//DTD SVG 1.1//EN" "http://www.w3.org/Graphics/SVG/1.1/DTD/svg11.dtd">
<svg version="1.1" id="圖層_1" xmlns="http://www.w3.org/2000/svg" xmlns:xlink="http://www.w3.org/1999/xlink" x="0px" y="0px"
	 width="17px" height="17px" viewBox="0 0 17 17" enable-background="new 0 0 17 17" xml:space="preserve">
<path fill="#FFFFFF" d="M8.5,0C3.807,0,0,3.806,0,8.5C0,13.193,3.807,17,8.5,17c0.784,0,1.417-0.633,1.417-1.417
	c0-0.368-0.138-0.699-0.368-0.948c-0.223-0.251-0.354-0.577-0.354-0.94c0-0.784,0.633-1.417,1.417-1.417h1.666
	c2.606,0,4.723-2.115,4.723-4.722C17,3.381,13.193,0,8.5,0z M3.306,8.5c-0.784,0-1.417-0.633-1.417-1.417
	c0-0.783,0.633-1.416,1.417-1.416S4.723,6.3,4.723,7.083C4.723,7.867,4.09,8.5,3.306,8.5z M6.139,4.723
	c-0.784,0-1.416-0.633-1.416-1.417s0.632-1.417,1.416-1.417s1.417,0.633,1.417,1.417S6.923,4.723,6.139,4.723z M10.861,4.723
	c-0.784,0-1.417-0.633-1.417-1.417s0.633-1.417,1.417-1.417s1.416,0.633,1.416,1.417S11.646,4.723,10.861,4.723z M13.694,8.5
	c-0.784,0-1.417-0.633-1.417-1.417c0-0.783,0.633-1.416,1.417-1.416s1.417,0.633,1.417,1.416C15.111,7.867,14.479,8.5,13.694,8.5z"
	/>
</svg>
