<?xml version="1.0" encoding="utf-8"?>
<!-- Generator: Adobe Illustrator 16.2.1, SVG Export Plug-In . SVG Version: 6.00 Build 0)  -->
<!DOCTYPE svg PUBLIC "-//W3C//DTD SVG 1.1//EN" "http://www.w3.org/Graphics/SVG/1.1/DTD/svg11.dtd">
<svg version="1.1" id="圖層_1" xmlns="http://www.w3.org/2000/svg" xmlns:xlink="http://www.w3.org/1999/xlink" x="0px" y="0px"
	 width="20px" height="27px" viewBox="0 0 20 27" enable-background="new 0 0 20 27" xml:space="preserve">
<g>
	<g>
		<path fill="#FCD833" d="M20,7.975l-3.068-1.055l1.087-3.057l-3.222,0.38L14.45,1.016l-2.737,1.741L10,0L8.288,2.757L5.549,1.016
			L5.204,4.243L1.98,3.862l1.088,3.057L0,7.975l2.308,2.283L0,12.541l3.069,1.055L1.98,16.652l3.223-0.381l0.346,3.227l2.739-1.74
			L10,20.516l1.713-2.758l2.737,1.74l0.347-3.227l3.222,0.381l-1.087-3.057L20,12.541l-2.308-2.283L20,7.975z M10,16.82
			c-3.625,0-6.562-2.938-6.562-6.563c0-3.625,2.938-6.562,6.562-6.562c3.624,0,6.562,2.938,6.562,6.562
			C16.562,13.882,13.624,16.82,10,16.82z"/>
		<polygon fill="#FCD833" points="3.5,18 0,24.188 3.5,24.062 5.25,27 8.312,20.375 4.812,21.5 		"/>
		<polygon fill="#FCD833" points="15.125,21.438 11.687,20.375 14.749,27 16.499,24.062 19.999,24.188 16.499,18 		"/>
	</g>
</g>
<text transform="matrix(1 0 0 1 5.2876 15.4502)" fill="#FCD833" font-family="'Arial-BoldItalicMT'" font-size="15">2</text>
</svg>
