<?xml version="1.0" encoding="utf-8"?>
<!-- Generator: Adobe Illustrator 16.2.1, SVG Export Plug-In . SVG Version: 6.00 Build 0)  -->
<!DOCTYPE svg PUBLIC "-//W3C//DTD SVG 1.1//EN" "http://www.w3.org/Graphics/SVG/1.1/DTD/svg11.dtd">
<svg version="1.1" id="圖層_1" xmlns="http://www.w3.org/2000/svg" xmlns:xlink="http://www.w3.org/1999/xlink" x="0px" y="0px"
	 width="65px" height="65px" viewBox="0 0 65 65" enable-background="new 0 0 65 65" xml:space="preserve">
<circle fill="#D64136" cx="32.5" cy="32.5" r="32.5"/>
<g>
	<path fill="#FFFFFF" d="M32.296,15.439c0.314,0.194,0.666,0.474,1.056,0.846c0.376,0.387,0.743,0.864,1.104,1.427
		c0.345,0.533,0.65,1.159,0.918,1.886c0.219,0.724,0.328,1.57,0.328,2.538c-0.028,1.773-0.423,3.19-1.183,4.254
		c-0.37,0.517-0.764,0.992-1.18,1.427c-0.461,0.434-0.95,0.878-1.471,1.33c-0.298,0.306-0.571,0.652-0.824,1.039
		c-0.297,0.403-0.445,0.869-0.445,1.401c0,0.519,0.153,0.943,0.458,1.282c0.259,0.322,0.51,0.605,0.755,0.847l1.694,1.377
		c1.049,0.855,1.971,1.796,2.764,2.828c0.746,1.049,1.134,2.418,1.168,4.108c0,2.403-1.068,4.528-3.203,6.384
		c-2.21,1.919-5.406,2.908-9.579,2.974c-3.494-0.032-6.101-0.772-7.824-2.219c-1.736-1.353-2.607-2.968-2.607-4.851
		c0-0.916,0.282-1.939,0.85-3.065c0.547-1.125,1.541-2.114,2.98-2.967c1.614-0.915,3.312-1.529,5.089-1.835
		c1.761-0.256,3.222-0.4,4.386-0.433c-0.359-0.47-0.681-0.973-0.962-1.508c-0.328-0.518-0.491-1.143-0.491-1.869
		c0-0.439,0.061-0.806,0.186-1.094c0.11-0.31,0.213-0.592,0.305-0.852c-0.566,0.064-1.102,0.098-1.601,0.098
		c-2.656-0.034-4.68-0.864-6.072-2.491c-1.458-1.516-2.188-3.28-2.188-5.294c0-2.435,1.032-4.64,3.098-6.625
		c1.417-1.158,2.891-1.915,4.418-2.271c1.514-0.306,2.932-0.459,4.254-0.459h9.974l-3.08,1.788H32.296z M34.222,43.967
		c0-1.259-0.412-2.353-1.238-3.288c-0.872-0.885-2.238-1.974-4.097-3.265c-0.319-0.032-0.692-0.048-1.12-0.048
		c-0.253-0.031-0.906,0-1.953,0.096c-1.032,0.145-2.089,0.378-3.169,0.7c-0.254,0.099-0.61,0.245-1.071,0.438
		c-0.46,0.209-0.929,0.507-1.406,0.894c-0.461,0.402-0.849,0.903-1.167,1.499c-0.366,0.63-0.546,1.388-0.546,2.273
		c0,1.742,0.792,3.176,2.379,4.304c1.51,1.128,3.573,1.708,6.194,1.742c2.351-0.034,4.144-0.55,5.382-1.55
		C33.618,46.779,34.222,45.515,34.222,43.967z M27.269,29.44c1.313-0.05,2.407-0.519,3.281-1.407
		c0.423-0.629,0.694-1.274,0.815-1.938c0.073-0.662,0.109-1.218,0.109-1.67c0-1.954-0.503-3.926-1.509-5.911
		c-0.473-0.952-1.094-1.728-1.863-2.324c-0.787-0.563-1.69-0.864-2.711-0.896c-1.353,0.033-2.474,0.574-3.371,1.624
		c-0.756,1.099-1.117,2.326-1.083,3.683c0,1.792,0.527,3.655,1.583,5.595c0.512,0.903,1.169,1.67,1.979,2.299
		C25.305,29.125,26.229,29.44,27.269,29.44z"/>
	<path fill="#FFFFFF" d="M51.962,19.065h-5.232v-5.201h-2.535v5.201h-5.232v2.52h5.232v5.199h2.535v-5.199h5.232V19.065z"/>
</g>
</svg>
