<?xml version="1.0" encoding="utf-8"?>
<!-- Generator: Adobe Illustrator 16.2.1, SVG Export Plug-In . SVG Version: 6.00 Build 0)  -->
<!DOCTYPE svg PUBLIC "-//W3C//DTD SVG 1.1//EN" "http://www.w3.org/Graphics/SVG/1.1/DTD/svg11.dtd">
<svg version="1.1" id="圖層_1" xmlns="http://www.w3.org/2000/svg" xmlns:xlink="http://www.w3.org/1999/xlink" x="0px" y="0px"
	 width="65px" height="65px" viewBox="0 0 65 65" enable-background="new 0 0 65 65" xml:space="preserve">
<circle fill="#66C413" cx="32.5" cy="32.5" r="32.5"/>
<g>
	<g>
		<g>
			<path fill="#FFFFFF" d="M55.235,31.734c0-10.047-10.071-18.22-22.452-18.22c-12.379,0-22.453,8.173-22.453,18.22
				c0,9.007,7.988,16.55,18.778,17.978c0.73,0.157,1.726,0.481,1.978,1.107c0.226,0.566,0.148,1.455,0.073,2.029
				c0,0-0.263,1.584-0.321,1.922c-0.097,0.567-0.451,2.22,1.945,1.211c2.396-1.01,12.93-7.614,17.64-13.036h-0.001
				C53.677,39.377,55.235,35.756,55.235,31.734z M23.994,37.713h-4.46c-0.649,0-1.177-0.529-1.177-1.18v-8.921
				c0-0.649,0.528-1.178,1.177-1.178c0.649,0,1.176,0.528,1.176,1.178v7.745h3.285c0.649,0,1.177,0.528,1.177,1.177
				C25.171,37.184,24.644,37.713,23.994,37.713z M28.608,36.533c0,0.65-0.528,1.18-1.177,1.18c-0.648,0-1.176-0.529-1.176-1.18
				v-8.921c0-0.649,0.528-1.178,1.176-1.178c0.649,0,1.177,0.528,1.177,1.178V36.533z M39.348,36.533
				c0,0.51-0.323,0.957-0.805,1.117c-0.122,0.041-0.247,0.062-0.374,0.062c-0.367,0-0.719-0.177-0.94-0.472l-4.571-6.227v5.519
				c0,0.65-0.528,1.18-1.179,1.18c-0.649,0-1.177-0.529-1.177-1.18v-8.921c0-0.508,0.324-0.957,0.805-1.117
				c0.122-0.041,0.248-0.061,0.375-0.061c0.367,0,0.72,0.176,0.94,0.471l4.573,6.227v-5.52c0-0.649,0.529-1.178,1.177-1.178
				c0.65,0,1.178,0.528,1.178,1.178V36.533z M46.566,30.896c0.65,0,1.177,0.528,1.177,1.178c0,0.648-0.526,1.177-1.177,1.177h-3.283
				v2.106h3.283c0.648,0,1.177,0.528,1.177,1.177c0,0.65-0.528,1.18-1.177,1.18h-4.461c-0.648,0-1.178-0.529-1.178-1.18v-4.458
				c0-0.001,0-0.001,0-0.002c0,0,0-0.002,0-0.003v-4.455c0-0.002,0-0.002,0-0.004c0-0.649,0.528-1.178,1.178-1.178h4.461
				c0.65,0,1.177,0.528,1.177,1.178c0,0.649-0.526,1.177-1.177,1.177h-3.283v2.106H46.566z"/>
		</g>
	</g>
</g>
</svg>
