<?xml version="1.0" encoding="utf-8"?>
<!-- Generator: Adobe Illustrator 16.2.1, SVG Export Plug-In . SVG Version: 6.00 Build 0)  -->
<!DOCTYPE svg PUBLIC "-//W3C//DTD SVG 1.1//EN" "http://www.w3.org/Graphics/SVG/1.1/DTD/svg11.dtd">
<svg version="1.1" id="圖層_1" xmlns="http://www.w3.org/2000/svg" xmlns:xlink="http://www.w3.org/1999/xlink" x="0px" y="0px"
	 width="65px" height="65px" viewBox="0 0 65 65" enable-background="new 0 0 65 65" xml:space="preserve">
<circle fill="#4CBBFA" cx="32.5" cy="32.5" r="32.5"/>
<path fill="#FFFFFF" d="M51.839,20.915c-1.424,0.632-2.954,1.059-4.558,1.25c1.638-0.982,2.898-2.538,3.489-4.392
	c-1.531,0.91-3.229,1.571-5.038,1.927c-1.448-1.544-3.512-2.507-5.793-2.507c-4.383,0-7.936,3.555-7.936,7.938
	c0,0.624,0.07,1.229,0.206,1.809c-6.596-0.33-12.442-3.491-16.356-8.295c-0.682,1.174-1.074,2.538-1.074,3.992
	c0,2.754,1.4,5.186,3.528,6.608c-1.299-0.04-2.523-0.399-3.593-0.994v0.1c0,3.846,2.736,7.055,6.365,7.785
	c-0.665,0.18-1.369,0.279-2.09,0.279c-0.511,0-1.009-0.052-1.494-0.145c1.01,3.154,3.94,5.449,7.412,5.515
	c-2.714,2.129-6.135,3.398-9.855,3.398c-0.64,0-1.271-0.038-1.892-0.111c3.511,2.251,7.682,3.566,12.166,3.566
	c14.595,0,22.577-12.096,22.577-22.588c0-0.343-0.009-0.686-0.021-1.028C49.429,23.906,50.772,22.508,51.839,20.915z"/>
</svg>
