<?xml version="1.0" encoding="utf-8"?>
<!-- Generator: Adobe Illustrator 16.2.1, SVG Export Plug-In . SVG Version: 6.00 Build 0)  -->
<!DOCTYPE svg PUBLIC "-//W3C//DTD SVG 1.1//EN" "http://www.w3.org/Graphics/SVG/1.1/DTD/svg11.dtd">
<svg version="1.1" id="圖層_1" xmlns="http://www.w3.org/2000/svg" xmlns:xlink="http://www.w3.org/1999/xlink" x="0px" y="0px"
	 width="65px" height="65px" viewBox="0 0 65 65" enable-background="new 0 0 65 65" xml:space="preserve">
<circle fill="#36465D" cx="32.5" cy="32.5" r="32.5"/>
<path fill="#FFFFFF" d="M43.197,44.035c-1.49,0.974-2.633,1.403-4.6,1.403c-4.353,0-4.799-3.139-4.799-3.584V30.025
	c0-0.444,0.568-0.774,1.012-0.774h7.406c0.441,0,0.675-0.379,0.675-0.824V28.41c0-0.446,0-4.819,0-4.819
	c0-0.446-0.233-0.833-0.675-0.833h-7.406c-0.443,0-1.012-0.338-1.012-0.783v-7.48c0-0.444-0.159-0.827-0.603-0.827h-3.55
	c-0.443,0-0.873,0.368-0.956,0.804c0,0-0.699,3.451-1.803,5.098c-0.504,0.753-1.09,1.407-1.739,1.915
	c-1.045,0.823-2.74,1.147-2.74,1.147c-0.437,0.081-0.684,0.15-0.902,0.15c-0.459,0-0.695,0.363-0.695,0.809v4.82
	c0,0.445,0.369,0.84,0.812,0.84h2.716c0.446,0,0.809,0.347,0.809,0.791c0,0-0.051,14.038-0.051,14.478c0,0-0.095,6.813,10.676,6.813
	c5.338,0,7.689-1.188,7.689-1.188c0.396-0.2,0.728-0.65,0.728-1.175v-4.684C44.189,43.362,43.285,43.979,43.197,44.035z"/>
</svg>
