<?xml version="1.0" encoding="utf-8"?>
<!-- Generator: Adobe Illustrator 16.2.1, SVG Export Plug-In . SVG Version: 6.00 Build 0)  -->
<!DOCTYPE svg PUBLIC "-//W3C//DTD SVG 1.1//EN" "http://www.w3.org/Graphics/SVG/1.1/DTD/svg11.dtd">
<svg version="1.1" id="圖層_1" xmlns="http://www.w3.org/2000/svg" xmlns:xlink="http://www.w3.org/1999/xlink" x="0px" y="0px"
	 width="65px" height="65px" viewBox="0 0 65 65" enable-background="new 0 0 65 65" xml:space="preserve">
<g>
	<circle fill="#696878" cx="32.5" cy="32.5" r="32.5"/>
	<path fill="#FFFFFF" d="M18.029,22.31H14.44v25.125c0,1.982,1.607,3.589,3.589,3.589h25.125v-3.589H18.029V22.31z M46.744,15.13
		H25.208c-1.983,0-3.589,1.606-3.589,3.589v21.536c0,1.983,1.606,3.589,3.589,3.589h21.536c1.982,0,3.59-1.605,3.59-3.589V18.72
		C50.334,16.736,48.727,15.13,46.744,15.13z M44.949,31.282h-7.179v7.179h-3.589v-7.179h-7.179v-3.589h7.179v-7.179h3.589v7.179
		h7.179V31.282z"/>
</g>
</svg>
