<?xml version="1.0" encoding="utf-8"?>
<!-- Generator: Adobe Illustrator 16.2.1, SVG Export Plug-In . SVG Version: 6.00 Build 0)  -->
<!DOCTYPE svg PUBLIC "-//W3C//DTD SVG 1.1//EN" "http://www.w3.org/Graphics/SVG/1.1/DTD/svg11.dtd">
<svg version="1.1" id="圖層_1" xmlns="http://www.w3.org/2000/svg" xmlns:xlink="http://www.w3.org/1999/xlink" x="0px" y="0px"
	 width="65px" height="65px" viewBox="0 0 65 65" enable-background="new 0 0 65 65" xml:space="preserve">
<circle fill="#EB5F43" cx="32.5" cy="32.5" r="32.5"/>
<g>
	<path fill="#FFFFFF" d="M28.545,48.358c-7.388,0.728-13.766-2.61-14.246-7.462c-0.48-4.851,5.123-9.374,12.51-10.104
		c7.389-0.731,13.767,2.609,14.247,7.458C41.534,43.104,35.935,47.628,28.545,48.358 M43.323,32.255
		c-0.63-0.188-1.06-0.316-0.73-1.142c0.711-1.793,0.785-3.34,0.014-4.443c-1.449-2.069-5.413-1.958-9.958-0.056
		c0-0.001-1.426,0.625-1.061-0.507c0.698-2.247,0.593-4.129-0.494-5.215c-2.465-2.467-9.02,0.093-14.643,5.713
		c-4.209,4.21-6.654,8.673-6.654,12.531c0,7.381,9.463,11.868,18.723,11.868c12.138,0,20.212-7.053,20.212-12.651
		C48.732,34.971,45.883,33.05,43.323,32.255"/>
	<path fill="#FFFFFF" d="M51.383,18.749c-2.931-3.25-7.255-4.488-11.246-3.639h-0.001c-0.923,0.196-1.513,1.105-1.312,2.027
		c0.195,0.922,1.104,1.512,2.027,1.315c2.839-0.603,5.911,0.28,7.995,2.587c2.082,2.309,2.647,5.457,1.755,8.217v0.001
		c-0.289,0.899,0.202,1.861,1.102,2.152c0.897,0.29,1.861-0.202,2.151-1.098c0-0.001,0-0.004,0-0.006
		C55.105,26.421,54.316,21.996,51.383,18.749"/>
	<path fill="#FFFFFF" d="M46.881,22.812c-1.426-1.582-3.531-2.184-5.477-1.771c-0.796,0.169-1.303,0.951-1.131,1.747
		c0.17,0.792,0.951,1.301,1.744,1.129v0.001c0.95-0.201,1.98,0.092,2.679,0.864c0.698,0.774,0.886,1.829,0.585,2.754h0.002
		c-0.249,0.772,0.173,1.602,0.946,1.853c0.773,0.248,1.603-0.175,1.852-0.948C48.692,26.548,48.312,24.394,46.881,22.812"/>
	<path fill="#FFFFFF" d="M29.284,34.525c-3.516-0.914-7.49,0.838-9.018,3.936c-1.555,3.161-0.051,6.668,3.501,7.814
		c3.68,1.186,8.016-0.632,9.525-4.042C34.779,38.898,32.922,35.466,29.284,34.525"/>
</g>
</svg>
