<?xml version="1.0" encoding="utf-8"?>
<!-- Generator: Adobe Illustrator 16.2.1, SVG Export Plug-In . SVG Version: 6.00 Build 0)  -->
<!DOCTYPE svg PUBLIC "-//W3C//DTD SVG 1.1//EN" "http://www.w3.org/Graphics/SVG/1.1/DTD/svg11.dtd">
<svg version="1.1" id="圖層_1" xmlns="http://www.w3.org/2000/svg" xmlns:xlink="http://www.w3.org/1999/xlink" x="0px" y="0px"
	 width="65px" height="65px" viewBox="0 0 65 65" enable-background="new 0 0 65 65" xml:space="preserve">
<circle fill="#5EB959" cx="32.5" cy="32.5" r="32.5"/>
<g>
	<path id="WhatsApp" fill="#FFFFFF" d="M54.298,31.586c0,11.638-9.507,21.07-21.235,21.07c-3.723,0-7.221-0.951-10.264-2.621
		l-11.756,3.735l3.833-11.305c-1.934-3.176-3.047-6.899-3.047-10.88c0-11.638,9.507-21.071,21.235-21.071
		C44.793,10.515,54.298,19.948,54.298,31.586z M33.062,13.87c-9.845,0-17.853,7.947-17.853,17.716c0,3.876,1.264,7.466,3.401,10.387
		l-2.23,6.578l6.86-2.181c2.819,1.851,6.196,2.931,9.822,2.931c9.846,0,17.854-7.946,17.854-17.714
		C50.916,21.818,42.908,13.87,33.062,13.87z M43.786,36.438c-0.131-0.215-0.478-0.345-0.998-0.603
		c-0.521-0.259-3.08-1.509-3.557-1.68c-0.477-0.172-0.825-0.259-1.171,0.258c-0.347,0.517-1.345,1.68-1.648,2.024
		c-0.305,0.346-0.607,0.389-1.128,0.13c-0.521-0.258-2.197-0.804-4.186-2.563c-1.547-1.369-2.592-3.058-2.896-3.575
		c-0.303-0.517-0.032-0.796,0.229-1.054c0.234-0.231,0.521-0.604,0.781-0.905s0.347-0.516,0.52-0.861
		c0.174-0.345,0.087-0.646-0.043-0.905c-0.13-0.259-1.171-2.8-1.605-3.834c-0.434-1.033-0.867-0.861-1.171-0.861
		c-0.303,0-0.651-0.043-0.998-0.043c-0.347,0-0.911,0.129-1.388,0.646c-0.477,0.518-1.821,1.767-1.821,4.308
		c0,2.542,1.864,4.998,2.125,5.342c0.26,0.344,3.6,5.729,8.892,7.797c5.292,2.067,5.292,1.377,6.245,1.291
		c0.955-0.087,3.079-1.249,3.515-2.454C43.915,37.688,43.915,36.654,43.786,36.438z"/>
</g>
</svg>
