<?xml version="1.0" encoding="utf-8"?>
<!-- Generator: Adobe Illustrator 17.1.0, SVG Export Plug-In . SVG Version: 6.00 Build 0)  -->
<svg version="1.2" baseProfile="tiny" id="圖層_1"
	 xmlns="http://www.w3.org/2000/svg" xmlns:xlink="http://www.w3.org/1999/xlink" x="0px" y="0px" viewBox="0 0 50 50"
	 xml:space="preserve">
<g>
	<g>
		<path fill="#FFFFFF" d="M25,49.1C11.7,49.1,0.9,38.3,0.9,25C0.9,11.7,11.7,0.9,25,0.9S49.1,11.7,49.1,25
			C49.1,38.3,38.3,49.1,25,49.1z M25,4.2C13.5,4.2,4.2,13.5,4.2,25c0,11.5,9.3,20.8,20.8,20.8S45.8,36.5,45.8,25
			C45.8,13.5,36.5,4.2,25,4.2z"/>
	</g>
	<polygon fill="#FFFFFF" points="25,3.4 29.9,18.4 45.7,18.4 32.9,27.7 37.8,42.8 25,33.5 12.2,42.8 17.1,27.7 4.3,18.4 20.1,18.4 	
		"/>
</g>
</svg>
