<?xml version="1.0" encoding="utf-8"?>
<!-- Generator: Adobe Illustrator 16.2.1, SVG Export Plug-In . SVG Version: 6.00 Build 0)  -->
<!DOCTYPE svg PUBLIC "-//W3C//DTD SVG 1.1//EN" "http://www.w3.org/Graphics/SVG/1.1/DTD/svg11.dtd">
<svg version="1.1" id="圖層_1" xmlns="http://www.w3.org/2000/svg" xmlns:xlink="http://www.w3.org/1999/xlink" x="0px" y="0px"
	 width="19px" height="19px" viewBox="0 0 19 19" enable-background="new 0 0 19 19" xml:space="preserve">
<path fill="#E2E2E2" d="M15.399,14.121c1.564-1.353,2.538-3.236,2.538-5.322c0-4.115-3.777-7.45-8.438-7.45
	c-4.659,0-8.438,3.334-8.438,7.45S4.841,16.25,9.5,16.25c0.609,0,1.202-0.06,1.774-0.168c0.918,0.442,4.659,2.143,6.529,1.371
	C17.956,16.907,15.741,16.104,15.399,14.121z M4.936,10.206c-0.777,0-1.406-0.629-1.406-1.406s0.629-1.406,1.406-1.406
	S6.342,8.023,6.342,8.8S5.712,10.206,4.936,10.206z M9.5,10.206c-0.777,0-1.406-0.629-1.406-1.406S8.723,7.394,9.5,7.394
	c0.777,0,1.406,0.629,1.406,1.406S10.277,10.206,9.5,10.206z M14.064,10.206c-0.777,0-1.406-0.629-1.406-1.406
	s0.629-1.406,1.406-1.406s1.406,0.629,1.406,1.406S14.842,10.206,14.064,10.206z"/>
</svg>
