<?xml version="1.0" encoding="utf-8"?>
<!-- Generator: Adobe Illustrator 16.2.1, SVG Export Plug-In . SVG Version: 6.00 Build 0)  -->
<!DOCTYPE svg PUBLIC "-//W3C//DTD SVG 1.1//EN" "http://www.w3.org/Graphics/SVG/1.1/DTD/svg11.dtd">
<svg version="1.1" id="圖層_1" xmlns="http://www.w3.org/2000/svg" xmlns:xlink="http://www.w3.org/1999/xlink" x="0px" y="0px"
	 width="15px" height="13px" viewBox="0 0 15 13" enable-background="new 0 0 15 13" xml:space="preserve">
<path fill="none" d="M0,0h48v48H0V0z"/>
<g>
	<path fill="#FFFFFF" d="M7.5,1.386C4.091,1.386,1.18,3.507,0,6.5c1.18,2.992,4.091,5.113,7.5,5.113c3.412,0,6.32-2.121,7.5-5.113
		C13.82,3.507,10.912,1.386,7.5,1.386z M7.5,9.91c-1.882,0-3.409-1.529-3.409-3.41c0-1.882,1.527-3.409,3.409-3.409
		s3.409,1.527,3.409,3.409C10.909,8.381,9.382,9.91,7.5,9.91z M7.5,4.456c-1.128,0-2.045,0.917-2.045,2.046
		c0,1.127,0.917,2.043,2.045,2.043c1.129,0,2.045-0.916,2.045-2.043C9.545,5.373,8.629,4.456,7.5,4.456z"/>
</g>
</svg>
