<?xml version="1.0" encoding="utf-8"?>
<!-- Generator: Adobe Illustrator 16.2.1, SVG Export Plug-In . SVG Version: 6.00 Build 0)  -->
<!DOCTYPE svg PUBLIC "-//W3C//DTD SVG 1.1//EN" "http://www.w3.org/Graphics/SVG/1.1/DTD/svg11.dtd">
<svg version="1.1" id="圖層_1" xmlns="http://www.w3.org/2000/svg" xmlns:xlink="http://www.w3.org/1999/xlink" x="0px" y="0px"
	 width="15px" height="13px" viewBox="16.5 17.5 15 13" enable-background="new 16.5 17.5 15 13" xml:space="preserve">
<path fill="none" d="M0,0h48v48H0V0z"/>
<g>
	<path fill="#7C7C7C" d="M24,18.886c-3.409,0-6.32,2.121-7.5,5.114c1.18,2.992,4.091,5.113,7.5,5.113c3.412,0,6.32-2.121,7.5-5.113
		C30.32,21.007,27.412,18.886,24,18.886z M24,27.41c-1.882,0-3.409-1.529-3.409-3.41c0-1.882,1.527-3.409,3.409-3.409
		s3.409,1.527,3.409,3.409C27.409,25.881,25.882,27.41,24,27.41z M24,21.955c-1.128,0-2.045,0.917-2.045,2.046
		c0,1.128,0.917,2.044,2.045,2.044c1.129,0,2.045-0.916,2.045-2.044C26.045,22.872,25.129,21.955,24,21.955z"/>
</g>
</svg>
